<svg width="30" height="30" viewBox="0 0 30 30" fill="none" xmlns="http://www.w3.org/2000/svg">
<path d="M21.3159 8.68381L15.6318 8.05225L8.68441 8.68381L8.05273 14.9996L8.68429 21.3155L15.0001 22.105L21.3159 21.3155L21.9475 14.8418L21.3159 8.68381Z" fill="white"/>
<path d="M11.2743 18.4833C10.8022 18.1643 10.4753 17.6986 10.2969 17.0828L11.3927 16.6312C11.4922 17.0102 11.6658 17.3038 11.9138 17.5122C12.1601 17.7207 12.4601 17.8233 12.8106 17.8233C13.1691 17.8233 13.477 17.7143 13.7343 17.4964C13.9915 17.2785 14.1211 17.0006 14.1211 16.6643C14.1211 16.3202 13.9853 16.039 13.7137 15.8212C13.4422 15.6034 13.1011 15.4943 12.6937 15.4943H12.0606V14.4096H12.6289C12.9795 14.4096 13.2748 14.315 13.5148 14.1255C13.7548 13.936 13.8748 13.677 13.8748 13.347C13.8748 13.0534 13.7674 12.8196 13.5527 12.6444C13.338 12.4692 13.0663 12.3808 12.7363 12.3808C12.4143 12.3808 12.1584 12.4661 11.969 12.6382C11.7795 12.8103 11.6421 13.0218 11.5553 13.2713L10.4706 12.8198C10.6143 12.4124 10.878 12.0524 11.2648 11.7413C11.6517 11.4303 12.1458 11.2739 12.7458 11.2739C13.1895 11.2739 13.5889 11.3592 13.9427 11.5313C14.2963 11.7034 14.5743 11.9418 14.7748 12.245C14.9753 12.5496 15.0748 12.8908 15.0748 13.2696C15.0748 13.6565 14.9817 13.9833 14.7953 14.2517C14.6089 14.5202 14.38 14.7254 14.1084 14.8691V14.9338C14.4669 15.0838 14.7589 15.3128 14.9895 15.6207C15.2184 15.9286 15.3336 16.2965 15.3336 16.726C15.3336 17.1555 15.2247 17.5391 15.0067 17.8755C14.7888 18.2118 14.4873 18.477 14.1052 18.6696C13.7215 18.8622 13.2905 18.9602 12.8121 18.9602C12.2579 18.9617 11.7464 18.8022 11.2743 18.4833Z" fill="#1A73E8"/>
<path d="M17.9996 13.0453L16.8027 13.9153L16.2012 13.0027L18.3596 11.4459H19.187V18.7895H17.9996V13.0453Z" fill="#1A73E8"/>
<path d="M21.3159 27L27 21.3159L24.1579 20.0527L21.3159 21.3159L20.0527 24.1579L21.3159 27Z" fill="#EA4335"/>
<path d="M7.42188 24.158L8.68499 27.0001H21.3165V21.3159H8.68499L7.42188 24.158Z" fill="#34A853"/>
<path d="M4.89468 3C3.84792 3 3 3.84792 3 4.89468V21.3157L5.84207 22.5788L8.68415 21.3157V8.68416H21.3157L22.5788 5.84208L21.3158 3H4.89468Z" fill="#4285F4"/>
<path d="M3 21.316V25.1055C3 26.1523 3.84792 27.0001 4.89468 27.0001H8.68415V21.316H3Z" fill="#188038"/>
<path d="M21.3164 8.68402V21.3156H27.0006V8.68402L24.1585 7.4209L21.3164 8.68402Z" fill="#FBBC04"/>
<path d="M27.0006 8.68416V4.89468C27.0006 3.8478 26.1526 3 25.1059 3H21.3164V8.68416H27.0006Z" fill="#1967D2"/>
</svg>
