<svg width="30" height="30" viewBox="0 0 30 30" fill="none" xmlns="http://www.w3.org/2000/svg">
<g clip-path="url(#clip0_2312_4892)">
<path d="M16.916 14.9998L19.7593 18.2498L23.5827 20.6931L24.2493 15.0198L23.5827 9.47314L19.686 11.6198L16.916 14.9998Z" fill="#00832D"/>
<path d="M0.416016 20.167V25.0003C0.416016 26.1053 1.31102 27.0003 2.41602 27.0003H7.24935L8.24935 23.347L7.24935 20.167L3.93268 19.167L0.416016 20.167Z" fill="#0066DA"/>
<path d="M7.24935 3L0.416016 9.83333L3.93268 10.8333L7.24935 9.83333L8.23268 6.69667L7.24935 3Z" fill="#E94235"/>
<path d="M7.24935 9.8335H0.416016V20.1668H7.24935V9.8335Z" fill="#2684FC"/>
<path d="M27.95 5.89322L23.5833 9.47322V20.6932L27.97 24.2899C28.6267 24.8032 29.5867 24.3349 29.5867 23.4999V6.66655C29.5867 5.82155 28.605 5.35822 27.95 5.89322ZM16.9167 14.9999V20.1666H7.25V26.9999H21.5833C22.6883 26.9999 23.5833 26.1049 23.5833 24.9999V20.6932L16.9167 14.9999Z" fill="#00AC47"/>
<path d="M21.5833 3H7.25V9.83333H16.9167V15L23.5833 9.47667V5C23.5833 3.895 22.6883 3 21.5833 3Z" fill="#FFBA00"/>
</g>
<defs>
<clipPath id="clip0_2312_4892">
<rect width="29.1667" height="24" fill="white" transform="translate(0.416016 3)"/>
</clipPath>
</defs>
</svg>
